<svg version="1.1" id="Layer_1" xmlns="http://www.w3.org/2000/svg" xmlns:xlink="http://www.w3.org/1999/xlink" x="0px" y="0px" viewBox="0 0 595.3 114.1" style="enable-background:new 0 0 595.3 114.1;" xml:space="preserve">
<style type="text/css">
	.st0{fill:#D7383A;}
	.st1{fill:#DC0D15;}
</style>
<g>
	<path class="st0" d="M382.4,96.2C382.7,96.2,382.7,96.2,382.4,96.2C382.2,96.2,382.1,96.2,382.4,96.2z"/>
	<path class="st1" d="M200,30.4c3.3,0,6-2.6,6-5.9c0-3.3-2.7-5.9-6-5.9c-3.3,0-6,2.7-6,5.9C193.9,27.7,196.6,30.4,200,30.4z"/>
	<path class="st0" d="M431.8,51.3C431.5,51.3,432.4,51.3,431.8,51.3L431.8,51.3z"/>
	<path class="st1" d="M587.3,78.3c-70.9,10.6-84.2,10.2-89.1,7.2c-0.9-0.7-2.1-2.2-2.6-5.3c6.7-5.1,17.6-14.7,23.3-19.8   c3-2.7,6.1-5.5,7.5-9.4c2.1-6-2.1-12.3-7.7-14.2c-5.3-1.8-10.5-0.8-15.4,1.8c-1.2,0.6-2.6,1.6-3.6,2.5   c-7.2,6.2-13.9,18.3-13.9,33.7l-0.9,0.6c-0.8,0.5-1.6,1.1-2.4,1.7c-7,4.8-13.2,8.8-15.5,8.9c-0.1-0.2-0.2-0.5-0.2-1.2   c-0.1-2.7,0.9-10.3,6-28.8c0.2-0.6,0.4-1.6,0.7-2.3c1-3.2,2.1-6.9,2-10.2c-0.1-2-0.6-3.9-1.9-5.5c-1.3-1.5-3.7-3.2-8-2.5l-0.5,0.1   c-8.6,2.3-22.4,5.1-23.5,5.4c-0.5-0.5-1.1-1-1.5-1.4c-3.2-2.8-8.1-4.7-12.4-4.1c-3.9,0.6-7.8,3.9-8.1,7.8   c-0.5,6.1,7.7,7.5,12.4,7.9c0.1,0,0.1,0,0.1,0c0.1,0,0.1,0,0.3,0c-1.9,31.2-15.4,36-22,33.8c-0.6-0.3-0.7-7-0.2-12.8   c1.3-15.6,6.3-36.4,6.3-37l-9.4,1c-0.2,0.9-0.4,1.7-0.5,2.6c-4-1.4-8.2-2.6-12.5-2.7c-8.2-0.1-15.3,5-20.1,11.3   c-3,4-5.5,8.4-7.3,13.1c-0.6,1.7-1.1,3.5-1.5,5.3c-1.1,5.4-0.9,11.2,0.7,16.5c-5.2,2.4-9.5,4-11.2,4.1c-0.2-0.4-1.4-6.1-1.7-11   c0.6-1.6,1.2-3.1,1.7-4.6c3.3-9.6,5.6-33.6,5.6-33.6l-11.1,2.4c0,0-2.9,27.5-11,39.7c-3,4.5-6.9,6.7-9.3,4.6   c-4.3-3.8-1.6-21.4-1.6-21.4l-9.9,2.5c-0.6,5.7-1.3,8.4-2.6,12.3c-1.2,3.5-3,7.1-6.7,8.6c-12.2,4.9-8.3-12.7-7-18.5   c1-4.8,2.2-9.5,3.6-14.2c0.8-2.7,4.1-14.3,4.5-15.8L297,39.6c-0.4,1.4-5.9,20.2-8.9,29.8c-17.7,15.5-25.9,18.9-31.4,16.6   c-0.8-0.3-3-1.2-3.8-5.9c6.7-5.1,17.6-14.7,23.3-19.8c3-2.7,6.1-5.5,7.5-9.4c2.1-6.1-2.1-12.3-7.7-14.2c-5.3-1.8-10.6-0.8-15.4,1.8   c-1.2,0.7-2.6,1.6-3.6,2.5c-7.2,6.2-13.9,18.3-13.9,33.7l-0.9,0.6c-8,5.4-18.2,11-20.9,11.2c-0.4-0.7-1.8-3.7,1.1-17   c0.8-3.6,3.9-15,6.1-22.9l2.9,0.1c0,0,9.2-0.1,14.4-0.8l-1.4-9.6c-3.7,0.5-10,0.6-13.3,0.6l2.1-8c0,0,2.8-10.8,2.9-11.3l-9.5-2.7   c-0.4,1.7-3.6,13.9-3.6,13.9l-2,7.7l-1.4-0.1c0,0-5.1-0.5-7.8-0.9l-1.2,9.6c2,0.3,5.3,0.6,7.8,0.9c-2,7.2-4.8,17.5-5.6,20.9   c-0.8,3.6-1.4,6.8-1.7,9.7c-8.4,5.2-17.5,9.7-20.1,9.9c-0.3-0.6-1.6-3.7,0.5-14.5c1.5-8,5.1-19.9,7.1-26.5c0.7-2.4,1.4-4.5,1.8-6.2   l-9.4-2.1l0,0c-4.6,5.2-15.5,11.9-26.1,18.2c-0.1-7.9-1.5-15.8-4.7-19.6c-2-2.4-4.2-2.9-5.8-3c-3.5-0.1-6.2,1.9-12.3,6.2   c-7.5,5.5-21.5,15.6-48.1,29.8C43.4,96,9.9,82.2,9.6,82.1l-4.3,9.8c0.8,0.3,10.9,4.6,28.1,4.6c16.3,0,38.8-3.8,65.9-18.2   c27.3-14.5,41.6-25,49.4-30.6c1.5-1.1,3.1-2.3,4.3-3.1c1,3.3,1.8,9.9,1.1,17.1c-1.3,0.8-2.6,1.5-3.9,2.2c-4.9,2.7-9.1,5.1-12,6.9   c-4.1,2.5-13.3,8.2-9.5,17.6c2.6,6.3,9.9,9.3,17.7,6.8c6.3-2.1,14.3-8.4,17.6-26.7c7.4-4.2,15.3-8.9,21.9-13.5   c-0.1,0.3-0.2,0.6-0.3,0.9l-2.9,11.6c-2.3,10.6-2.8,19.4,0.4,24.3c1.6,2.5,3.9,4.1,6.8,4.4c0.3,0,0.6,0.1,0.9,0.1   c5.1,0,13.7-4.5,20.7-8.5c0.4,1.7,1.1,3.2,2,4.5c1.6,2.2,3.9,3.5,6.7,3.9c5.8,0.9,16.7-6.3,24-10.9c2,5.2,5.9,8.6,8.9,9.8   c2,0.8,4.2,1.2,6.7,1.2c13,0,21-7.8,28.8-15.8c0.2,7.6,3.7,11.1,6.6,13.1c2.8,1.9,6.1,2.8,9.1,2.8c4.4,0,9.7-1.1,12.6-4.7   c0.6-0.8,1.2-1.6,1.7-2.5c-0.2,0.4,1.8,2.8,2.1,3.2c3,3.6,7.7,4.4,12.4,3.6c4.7-0.9,8.4-3.1,11.3-6.1c0.3,0.9,0.6,1.6,1,2.2   c1.8,2.5,4.5,3.9,7.8,4.2c0.3,0,0.6,0,1,0c1.7,0,4.2-0.6,7-1.5c3-1,6.3-2.2,9.3-3.5c1.8,1.8,4.2,3.4,6.6,4.2   c0.3,0.1,0.9,0.3,0.9,0.3c0.5,0.2,1,0.3,1.6,0.3c0.2,0,0.3,0,0.5,0c0.6,0.1,2,0.2,2.5,0.2c5.6,0,13-2.4,18.2-5.3   c1.2,2.3,3.7,4.4,7.6,5c13.5,2.1,26.3-7.3,30.4-24.5c2.2-9.2,3.7-19.4,4-20.6c3.9-0.4,12.7-2.6,23.1-5.4c-0.3,1.7-1,4.1-1.4,5.3   c-0.2,0.8-0.5,1.6-0.7,2.3c-4.2,15.4-6.9,26.2-6.4,33c0.2,2.3,0.7,4.2,1.6,5.6c1.6,2.4,4,4.2,6.8,4.5c5.2,0.6,21.4-10.4,21.4-10.4   s0.1,0.2,0.3,0.5c0.4,0.9,0.9,1.7,1.5,2.5c0.1,0.2,0.2,0.3,0.2,0.3c0.7,1,1.5,2,2.4,2.8c2.9,2.8,7.1,4.3,11,4.4   c2.2,0.1,4.5,0,6.7-0.1c4.7,0,9.4-0.3,14.1-0.7c6.6-0.5,13.2-1,19.7-1.8c6.5-0.8,13.1-1.4,19.6-2.3c5.4-0.7,10.9-1.4,16.3-2.2   c3.4-0.5,6.7-1,10.1-1.5L587.3,78.3z M504.8,48.4c8.2-7.7,12.6,0.9,12.6,0.9s-1,1.1-4.2,4c-3.5,3.2-11,10.7-17.5,16.4   C496.4,60.7,500.6,52.4,504.8,48.4z M262.2,48.3c8.2-7.7,12.6,0.9,12.6,0.9s-1,1.1-4.3,4.1c-3.4,3.2-11,10.7-17.5,16.4   C253.8,60.5,258,52.2,262.2,48.3z M143.7,86.3c-4.1,1.3-6.2-0.2-6.9-1.7c0.8-0.7,2.6-2.2,7-5c2.1-1.3,5.1-3.1,9.1-5.3   C150.3,80.7,147.7,85,143.7,86.3z M399.2,80.2c-0.5,0.4-1.6,1-3,1.7c-4.2,2.2-12.5,5-17.2,2c-0.7-0.4-1.3-1-1.8-1.7   c-4.2-6.1-1.7-14.7,0.4-21c2.4-6.9,6.7-13.8,14.2-15.6c4.3-1.1,8.5-0.4,12.6,0.7C402.6,53.6,399.6,66.6,399.2,80.2z M426,43.5   c-0.3-0.4,0.6-1.2,0.8-1.3c1.5-1.4,4.1-1.8,5.8-0.4c1.2,0.9,2,2.3,2,2.3C432,44.6,426.2,43.9,426,43.5z"/>
</g>
</svg>